<?xml version="1.0" encoding="UTF-8"?>
<svg xmlns="http://www.w3.org/2000/svg" width="40" height="40" viewBox="0 0 40 40" fill="none">
  <path d="M5 31.6667V8.33333C5 7.44928 5.35119 6.60143 5.97631 5.97631C6.60143 5.35119 7.44928 5 8.33333 5H31.6667C32.5507 5 33.3986 5.35119 34.0237 5.97631C34.6488 6.60143 35 7.44928 35 8.33333V31.6667C35 32.5507 34.6488 33.3986 34.0237 34.0237C33.3986 34.6488 32.5507 35 31.6667 35H8.33333C7.44928 35 6.60143 34.6488 5.97631 34.0237C5.35119 33.3986 5 32.5507 5 31.6667Z" stroke="white" stroke-width="1.5"></path>
  <path d="M30 23.3333V16.6667M20.8333 15.8333L22.5 14.1667M12.5 15.8333L10.8333 14.1667M10.8333 25.8333L12.5 24.1667M22.5 25.8333L20.8333 24.1667M3.33331 13.3333H4.99998M3.33331 10H4.99998M4.99998 26.6667H3.33331M4.99998 30H3.33331M16.6666 25C15.3406 25 14.0688 24.4732 13.1311 23.5355C12.1934 22.5979 11.6666 21.3261 11.6666 20C11.6666 18.6739 12.1934 17.4021 13.1311 16.4645C14.0688 15.5268 15.3406 15 16.6666 15C17.9927 15 19.2645 15.5268 20.2022 16.4645C21.1399 17.4021 21.6666 18.6739 21.6666 20C21.6666 21.3261 21.1399 22.5979 20.2022 23.5355C19.2645 24.4732 17.9927 25 16.6666 25Z" stroke="white" stroke-width="1.5" stroke-linecap="round" stroke-linejoin="round"></path>
</svg>
