<?xml version="1.0" encoding="UTF-8"?>
<svg xmlns="http://www.w3.org/2000/svg" width="32" height="36" viewBox="0 0 32 36" fill="none">
  <path d="M24.3333 31.3333C24.3333 32.2173 24.6845 33.0652 25.3096 33.6903C25.9348 34.3154 26.7826 34.6666 27.6667 34.6666C28.5507 34.6666 29.3986 34.3154 30.0237 33.6903C30.6488 33.0652 31 32.2173 31 31.3333C31 30.4492 30.6488 29.6014 30.0237 28.9762C29.3986 28.3511 28.5507 27.9999 27.6667 27.9999C26.7826 27.9999 25.9348 28.3511 25.3096 28.9762C24.6845 29.6014 24.3333 30.4492 24.3333 31.3333ZM24.3333 31.3333H21M7.66667 4.66659C7.66667 5.55064 7.31548 6.39849 6.69036 7.02361C6.06523 7.64873 5.21739 7.99992 4.33333 7.99992C3.44928 7.99992 2.60143 7.64873 1.97631 7.02361C1.35119 6.39849 1 5.55064 1 4.66659C1 3.78253 1.35119 2.93468 1.97631 2.30956C2.60143 1.68444 3.44928 1.33325 4.33333 1.33325C5.21739 1.33325 6.06523 1.68444 6.69036 2.30956C7.31548 2.93468 7.66667 3.78253 7.66667 4.66659ZM7.66667 4.66659H11M19.3333 4.66659H16M16 31.3333H12.6667M1 31.3333C14.3333 31.3333 17.6667 4.66659 31 4.66659" stroke="white" stroke-width="1.5" stroke-linecap="round" stroke-linejoin="round"></path>
</svg>
