<?xml version="1.0" encoding="UTF-8"?>
<svg xmlns="http://www.w3.org/2000/svg" width="73" height="72" viewBox="0 0 73 72" fill="none">
  <path d="M66.5 36C66.5 19.431 53.069 6 36.5 6C19.931 6 6.5 19.431 6.5 36C6.5 52.569 19.931 66 36.5 66M39.5 6.15C39.5 6.15 48.5 18 48.5 36" stroke="black" stroke-width="1.5" stroke-linecap="round" stroke-linejoin="round"></path>
  <path d="M33.4996 65.8499C33.4996 65.8499 24.4996 53.9999 24.4996 35.9999C24.4996 17.9999 33.4996 6.1499 33.4996 6.1499M8.38965 46.4999H36.4996M8.38965 25.4999H64.6097M57.4996 52.4999V56.9999H61.9996" stroke="black" stroke-width="1.5" stroke-linecap="round" stroke-linejoin="round"></path>
  <path d="M57.5 69C60.6826 69 63.7348 67.7357 65.9853 65.4853C68.2357 63.2348 69.5 60.1826 69.5 57C69.5 53.8174 68.2357 50.7652 65.9853 48.5147C63.7348 46.2643 60.6826 45 57.5 45C54.3174 45 51.2652 46.2643 49.0147 48.5147C46.7643 50.7652 45.5 53.8174 45.5 57C45.5 60.1826 46.7643 63.2348 49.0147 65.4853C51.2652 67.7357 54.3174 69 57.5 69Z" stroke="black" stroke-width="1.5" stroke-linecap="round" stroke-linejoin="round"></path>
</svg>
