<?xml version="1.0" encoding="UTF-8"?>
<svg xmlns="http://www.w3.org/2000/svg" width="73" height="72" viewBox="0 0 73 72" fill="none">
  <path d="M51.5 39C52.2956 39 53.0587 38.6839 53.6213 38.1213C54.1839 37.5587 54.5 36.7956 54.5 36C54.5 35.2044 54.1839 34.4413 53.6213 33.8787C53.0587 33.3161 52.2956 33 51.5 33C50.7044 33 49.9413 33.3161 49.3787 33.8787C48.8161 34.4413 48.5 35.2044 48.5 36C48.5 36.7956 48.8161 37.5587 49.3787 38.1213C49.9413 38.6839 50.7044 39 51.5 39Z" fill="black" stroke="black" stroke-width="1.5" stroke-linecap="round" stroke-linejoin="round"></path>
  <path d="M51.5 51H21.5C17.5218 51 13.7064 49.4196 10.8934 46.6066C8.08035 43.7936 6.5 39.9782 6.5 36C6.5 32.0218 8.08035 28.2064 10.8934 25.3934C13.7064 22.5804 17.5218 21 21.5 21H51.5C55.4782 21 59.2936 22.5804 62.1066 25.3934C64.9196 28.2064 66.5 32.0218 66.5 36C66.5 39.9782 64.9196 43.7936 62.1066 46.6066C59.2936 49.4196 55.4782 51 51.5 51Z" stroke="black" stroke-width="1.5"></path>
</svg>
