<?xml version="1.0" encoding="UTF-8"?>
<svg xmlns="http://www.w3.org/2000/svg" width="73" height="72" viewBox="0 0 73 72" fill="none">
  <path d="M6.5 48V24C6.5 19.2261 8.39642 14.6477 11.7721 11.2721C15.1477 7.89642 19.7261 6 24.5 6H48.5C53.2739 6 57.8523 7.89642 61.2279 11.2721C64.6036 14.6477 66.5 19.2261 66.5 24V48C66.5 52.7739 64.6036 57.3523 61.2279 60.7279C57.8523 64.1036 53.2739 66 48.5 66H24.5C19.7261 66 15.1477 64.1036 11.7721 60.7279C8.39642 57.3523 6.5 52.7739 6.5 48Z" stroke="black" stroke-width="1.5"></path>
  <path d="M18.5 39V33C18.5 31.4087 19.1321 29.8826 20.2574 28.7574C21.3826 27.6321 22.9087 27 24.5 27H33.5C35.0913 27 36.6174 27.6321 37.7426 28.7574C38.8679 29.8826 39.5 31.4087 39.5 33V39C39.5 40.5913 38.8679 42.1174 37.7426 43.2426C36.6174 44.3679 35.0913 45 33.5 45H24.5C22.9087 45 21.3826 44.3679 20.2574 43.2426C19.1321 42.1174 18.5 40.5913 18.5 39Z" stroke="black" stroke-width="1.5"></path>
  <path d="M51.6202 27.66L42.4192 34.5601C42.1957 34.7277 42.0142 34.9451 41.8893 35.1951C41.7643 35.445 41.6992 35.7206 41.6992 36C41.6992 36.2795 41.7643 36.5551 41.8893 36.805C42.0142 37.055 42.1957 37.2724 42.4192 37.44L51.6202 44.34C51.8876 44.5406 52.2056 44.6628 52.5386 44.6928C52.8715 44.7228 53.2062 44.6595 53.5052 44.51C53.8042 44.3605 54.0556 44.1307 54.2314 43.8464C54.4071 43.562 54.5002 43.2343 54.5002 42.9001V29.1C54.5002 28.7658 54.4071 28.4381 54.2314 28.1537C54.0556 27.8694 53.8042 27.6396 53.5052 27.4901C53.2062 27.3406 52.8715 27.2773 52.5386 27.3073C52.2056 27.3373 51.8876 27.4595 51.6202 27.66Z" stroke="black" stroke-width="1.5" stroke-linecap="round" stroke-linejoin="round"></path>
</svg>
