<?xml version="1.0" encoding="UTF-8"?>
<svg xmlns="http://www.w3.org/2000/svg" width="40" height="40" viewBox="0 0 40 40" fill="none">
  <path d="M30 36.6666C31.3261 36.6666 32.5979 36.1398 33.5355 35.2021C34.4732 34.2644 35 32.9927 35 31.6666C35 30.3405 34.4732 29.0687 33.5355 28.1311C32.5979 27.1934 31.3261 26.6666 30 26.6666C28.6739 26.6666 27.4021 27.1934 26.4645 28.1311C25.5268 29.0687 25 30.3405 25 31.6666C25 32.9927 25.5268 34.2644 26.4645 35.2021C27.4021 36.1398 28.6739 36.6666 30 36.6666ZM30 13.3333C31.3261 13.3333 32.5979 12.8065 33.5355 11.8688C34.4732 10.9311 35 9.65933 35 8.33325C35 7.00717 34.4732 5.7354 33.5355 4.79772C32.5979 3.86004 31.3261 3.33325 30 3.33325C28.6739 3.33325 27.4021 3.86004 26.4645 4.79772C25.5268 5.7354 25 7.00717 25 8.33325C25 9.65933 25.5268 10.9311 26.4645 11.8688C27.4021 12.8065 28.6739 13.3333 30 13.3333ZM10 24.9999C11.3261 24.9999 12.5979 24.4731 13.5355 23.5355C14.4732 22.5978 15 21.326 15 19.9999C15 18.6738 14.4732 17.4021 13.5355 16.4644C12.5979 15.5267 11.3261 14.9999 10 14.9999C8.67392 14.9999 7.40215 15.5267 6.46447 16.4644C5.52678 17.4021 5 18.6738 5 19.9999C5 21.326 5.52678 22.5978 6.46447 23.5355C7.40215 24.4731 8.67392 24.9999 10 24.9999Z" stroke="white" stroke-width="1.5" stroke-linecap="round" stroke-linejoin="round"></path>
  <path d="M25.8334 10.8333L14.1667 17.4999M14.1667 22.4999L25.8334 29.1666" stroke="white" stroke-width="1.5"></path>
</svg>
