<?xml version="1.0" encoding="UTF-8"?>
<svg xmlns="http://www.w3.org/2000/svg" width="279" height="55" viewBox="0 0 279 55" fill="none">
  <path fill-rule="evenodd" clip-rule="evenodd" d="M55.1661 18.2981L55.1651 18.2991V18.3011L54.9591 18.4207C52.078 13.4438 47.2387 9.59244 42.0805 8.21361C36.9202 6.83478 30.3278 7.63037 25.3366 10.5037L25.2166 10.2993L42.7125 0.229776C43.1082 0.00221891 43.5784 -0.0593423 44.0197 0.0586279C44.461 0.176598 44.8372 0.464442 45.0656 0.858872L55.1661 18.2981Z" fill="#858585"></path>
  <path fill-rule="evenodd" clip-rule="evenodd" d="M35.0371 1.38029V1.61857C29.2738 1.6086 23.5055 3.84583 19.7213 7.60346C15.9341 11.3621 13.316 17.4467 13.304 23.1903H13.0679L13.1109 3.05223C13.1113 2.82669 13.1563 2.60344 13.2433 2.39524C13.3302 2.18703 13.4575 1.99795 13.6178 1.83879C13.7781 1.67964 13.9683 1.55353 14.1775 1.46767C14.3867 1.38182 14.6108 1.33789 14.837 1.33842L35.0371 1.38029Z" fill="#CDCDCD"></path>
  <path fill-rule="evenodd" clip-rule="evenodd" d="M10.4088 9.01918L10.6168 9.13882C7.71366 14.1028 6.75961 20.2004 8.12168 25.3498C9.48075 30.5022 13.448 35.8101 18.4252 38.7044L18.3052 38.9078L0.85429 28.7654C0.459831 28.5355 0.173003 28.1589 0.0567582 27.7183C-0.0594865 27.2778 0.00435012 26.8092 0.234257 26.4156L10.4098 9.02117L10.4088 9.01918Z" fill="#858585"></path>
  <path fill-rule="evenodd" clip-rule="evenodd" d="M5.80451 35.9806L5.80551 35.9786V35.9767L6.01152 35.86C8.86268 40.8529 13.6739 44.7372 18.8252 46.1489C23.9765 47.5576 30.5758 46.8039 35.5841 43.9655L35.7011 44.1699L18.1422 54.1268C17.7451 54.3517 17.2748 54.4104 16.8344 54.2901C16.394 54.1697 16.0195 53.8801 15.793 53.4847L5.80451 35.9806Z" fill="#CDCDCD"></path>
  <path fill-rule="evenodd" clip-rule="evenodd" d="M24.6355 54.2344V54.2334H24.6335L24.6355 53.9962C30.3978 54.044 36.1811 51.8427 39.9893 48.109C43.8005 44.3753 46.4577 38.3076 46.5067 32.562L46.7427 32.565L46.5707 52.7021C46.5691 52.9276 46.5229 53.1506 46.4348 53.3583C46.3466 53.566 46.2183 53.7544 46.057 53.9126C45.8957 54.0707 45.7047 54.1956 45.495 54.2801C45.2852 54.3646 45.0608 54.407 44.8346 54.4049L24.6355 54.2344Z" fill="#858585"></path>
  <path fill-rule="evenodd" clip-rule="evenodd" d="M50.5249 45.5965V45.5975L50.3179 45.4768C53.252 40.5318 54.2441 34.4392 52.918 29.2809C51.588 24.1205 47.6588 18.7846 42.6995 15.8605L42.8195 15.6571L60.2044 25.913C60.5974 26.145 60.882 26.5229 60.9957 26.9639C61.1093 27.4049 61.0427 27.8729 60.8104 28.2649L50.5249 45.5965Z" fill="#CDCDCD"></path>
  <path fill-rule="evenodd" clip-rule="evenodd" d="M100.994 49.389L97.6794 44.5526V49.388H97.1274V43.8837H97.8744L100.994 48.4518V43.8837H101.547V49.389H100.994ZM110.283 49.389H109.686L108.888 47.5426H106.32L105.523 49.389H104.925L107.305 43.8837H107.915L110.283 49.389ZM108.672 47.0441L107.611 44.5217L106.536 47.0441H108.672ZM115.542 44.3812H114.281V49.389H113.729V44.3812H112.467V43.8827H115.542V44.3812ZM118.906 49.389H119.458V43.8837H118.906V49.389ZM128.934 46.6064C128.934 47.4289 128.654 48.1159 128.094 48.6632C127.534 49.2115 126.84 49.4867 126.009 49.4867C125.184 49.4867 124.488 49.2175 123.927 48.6821C123.364 48.1478 123.082 47.4688 123.082 46.6513C123.082 45.8278 123.362 45.1448 123.922 44.6015C124.482 44.0571 125.178 43.786 126.009 43.786C126.839 43.786 127.535 44.0512 128.095 44.5855C128.654 45.1189 128.934 45.7919 128.934 46.6064ZM128.382 46.6064C128.382 45.9255 128.156 45.3702 127.706 44.9355C127.256 44.5008 126.694 44.2854 126.016 44.2854C125.338 44.2854 124.775 44.5088 124.319 44.9584C123.862 45.4071 123.637 45.9713 123.637 46.6513C123.637 47.3352 123.861 47.8965 124.315 48.3312C124.767 48.7699 125.334 48.9882 126.017 48.9882C126.694 48.9882 127.257 48.7629 127.706 48.3143C128.156 47.8646 128.382 47.2953 128.382 46.6064ZM136.971 49.388H136.416L133.104 44.5526V49.388H132.552V43.8837H133.298L136.416 48.4518V43.8837H136.971V49.389V49.388ZM145.707 49.388H145.111L144.311 47.5426H141.744L140.944 49.389H140.348L142.73 43.8837H143.342L145.707 49.389V49.388ZM144.096 47.0441L143.035 44.5217L141.961 47.0441H144.096ZM151.92 49.389H149.084V43.8837H149.638V48.8905H151.92V49.389ZM163.645 49.389H163.047L162.249 47.5426H159.682L158.882 49.389H158.284L160.666 43.8837H161.279L163.645 49.389ZM162.032 47.0441L160.972 44.5217L159.899 47.0441H162.032ZM168.904 44.3812H167.642V49.389H167.09V44.3812H165.828V43.8827H168.904V44.3812ZM177.252 46.6064C177.252 47.4289 176.972 48.1159 176.412 48.6632C175.855 49.2115 175.157 49.4867 174.325 49.4867C173.499 49.4867 172.805 49.2175 172.244 48.6821C171.683 48.1478 171.401 47.4688 171.401 46.6513C171.401 45.8278 171.681 45.1448 172.239 44.6015C172.801 44.0571 173.495 43.786 174.325 43.786C175.156 43.786 175.855 44.0512 176.413 44.5855C176.973 45.1189 177.252 45.7919 177.252 46.6064ZM176.7 46.6064C176.7 45.9255 176.476 45.3702 176.026 44.9355C175.575 44.5008 175.012 44.2854 174.333 44.2854C173.656 44.2854 173.092 44.5088 172.637 44.9584C172.181 45.4071 171.952 45.9713 171.952 46.6513C171.952 47.3352 172.179 47.8965 172.631 48.3312C173.084 48.7699 173.653 48.9882 174.333 48.9882C175.012 48.9882 175.574 48.7629 176.026 48.3143C176.476 47.8646 176.7 47.2953 176.7 46.6064ZM186.632 49.388H186.078V44.5008L183.983 49.389H183.52L181.42 44.5008V49.389H180.869V43.8837H181.721L183.75 48.5695L185.78 43.8837H186.632V49.389V49.388ZM190.486 49.388H191.038V43.8837H190.486V49.389V49.388ZM200.097 47.9523C199.856 48.4152 199.494 48.8045 199.049 49.0789C198.606 49.3516 198.095 49.493 197.575 49.4867C196.754 49.4867 196.068 49.2215 195.515 48.6891C194.949 48.1448 194.664 47.4549 194.664 46.6204C194.664 45.8078 194.94 45.1309 195.49 44.5915C196.038 44.0532 196.72 43.786 197.53 43.786C198.103 43.786 198.612 43.9186 199.057 44.1798C199.499 44.44 199.854 44.8261 200.075 45.2884H199.418C199.274 45.0605 199.089 44.8611 198.873 44.7002C198.495 44.424 198.049 44.2854 197.537 44.2854C196.857 44.2854 196.299 44.5098 195.866 44.9654C195.433 45.42 195.216 45.9713 195.216 46.6204C195.216 47.2904 195.445 47.8526 195.901 48.3053C196.356 48.7609 196.913 48.9882 197.575 48.9882C197.928 48.9894 198.277 48.9046 198.59 48.741C198.943 48.5635 199.228 48.3013 199.442 47.9523H200.098H200.097ZM212.388 47.9523C212.146 48.4155 211.783 48.8048 211.337 49.0789C210.896 49.3514 210.385 49.4928 209.865 49.4867C209.043 49.4867 208.358 49.2215 207.805 48.6891C207.239 48.1448 206.953 47.4549 206.953 46.6204C206.953 45.8078 207.229 45.1309 207.779 44.5915C208.327 44.0532 209.008 43.786 209.819 43.786C210.392 43.786 210.901 43.9186 211.346 44.1798C211.791 44.443 212.131 44.8128 212.366 45.2884H211.707C211.564 45.0605 211.379 44.8611 211.162 44.7002C210.784 44.424 210.34 44.2854 209.826 44.2854C209.146 44.2854 208.588 44.5098 208.156 44.9654C207.944 45.1849 207.777 45.4441 207.665 45.7281C207.553 46.0121 207.499 46.3154 207.505 46.6204C207.505 47.2904 207.734 47.8526 208.19 48.3053C208.645 48.7609 209.202 48.9882 209.865 48.9882C210.223 48.9882 210.562 48.9055 210.879 48.741C211.233 48.5635 211.517 48.3013 211.731 47.9523H212.388ZM221.617 46.6064C221.617 47.4289 221.336 48.1159 220.777 48.6632C220.217 49.2115 219.523 49.4867 218.692 49.4867C217.866 49.4867 217.171 49.2175 216.61 48.6821C216.046 48.1478 215.767 47.4688 215.767 46.6513C215.767 45.8278 216.046 45.1448 216.606 44.6015C217.166 44.0571 217.861 43.786 218.692 43.786C219.522 43.786 220.218 44.0512 220.778 44.5855C221.336 45.1189 221.617 45.7919 221.617 46.6064ZM221.066 46.6064C221.066 45.9255 220.84 45.3702 220.391 44.9355C219.941 44.5008 219.375 44.2854 218.699 44.2854C218.023 44.2854 217.456 44.5088 217.001 44.9584C216.546 45.4071 216.319 45.9713 216.319 46.6513C216.319 47.3352 216.544 47.8965 216.997 48.3312C217.45 48.7699 218.019 48.9882 218.699 48.9882C219.375 48.9882 219.941 48.7629 220.391 48.3143C220.84 47.8646 221.066 47.2953 221.066 46.6064ZM230.995 49.388H230.444V44.5008L228.347 49.389H227.884L225.786 44.5008V49.389H225.235V43.8837H226.085L228.115 48.5695L230.145 43.8837H230.995V49.389V49.388ZM238.488 45.5357C238.488 45.9943 238.346 46.3731 238.062 46.6652C237.729 47.0082 237.237 47.1797 236.582 47.1797H235.391V49.389H234.837V43.8837H236.583C237.306 43.8837 237.825 44.0791 238.145 44.4689C238.372 44.748 238.488 45.104 238.488 45.5357ZM237.936 45.5357C237.936 45.2067 237.836 44.9415 237.636 44.7381C237.404 44.5008 237.055 44.3812 236.592 44.3812H235.391V46.6812H236.591C237.049 46.6812 237.395 46.5616 237.629 46.3243C237.833 46.1199 237.936 45.8577 237.936 45.5357ZM246.068 49.389H245.471L244.671 47.5426H242.104L241.306 49.389H240.706L243.089 43.8837H243.701L246.068 49.389ZM244.455 47.0441L243.395 44.5217L242.32 47.0441H244.455ZM253.865 49.389H253.313L249.997 44.5526V49.388H249.445V43.8837H250.193L253.313 48.4518V43.8837H253.865V49.389ZM261.534 43.8837L259.646 47.5426V49.389H259.093V47.5426L257.205 43.8837H257.81L259.369 46.9703L260.929 43.8837H261.534ZM102.612 29.894L104.617 24.8592L106.595 29.894H102.612ZM102.282 19.0379L94.7173 36.8779H99.8945L101.166 33.7164H108.017L109.311 36.8769H114.591L107.029 19.0389H102.282V19.0379ZM95.5053 19.1056H89.668L83.5747 26.3497V19.1056H78.4994V36.818H83.5747V32.2987L85.3648 30.2699L89.82 36.818H93.1622L94.1423 34.5359L88.779 26.7376L95.5053 19.1056ZM138.473 29.894L140.478 24.8592L142.458 29.894H138.473ZM138.143 19.0379L130.579 36.8769H135.757L137.028 33.7154H143.879L145.173 36.8759H150.453L142.89 19.0379H138.143ZM122.052 32.7693L130.782 22.7327V19.1066H115.552V23.6609H124.159L114.906 33.7174L116.217 36.818H129.259L130.974 32.7693H122.052ZM147.382 23.4665H152.712V36.8759H157.637V23.4665H162.966V19.1655H147.382V23.4665ZM172.838 32.8032C170.148 32.8032 168.295 30.5769 168.295 28.0217C168.295 25.4146 170.097 23.2391 172.787 23.2391C175.504 23.2391 177.357 25.4644 177.357 28.0217C177.357 30.6278 175.555 32.8032 172.838 32.8032ZM172.838 18.8095C167.355 18.8095 163.244 22.9341 163.244 28.0217C163.244 33.1561 167.304 37.2308 172.787 37.2308C178.268 37.2308 182.382 33.1063 182.382 28.0217C182.382 22.8852 178.319 18.8095 172.838 18.8095ZM212.711 27.9708H210.375V23.289H212.685C214.462 23.289 215.525 24.0985 215.525 25.6169C215.525 27.0596 214.462 27.9698 212.711 27.9698V27.9708ZM213.065 19.1645H205.45V36.8769H210.375V31.8162H212.813C217.229 31.8162 220.45 29.6158 220.45 25.4395C220.45 21.4675 217.558 19.1645 213.065 19.1645ZM230.196 27.6667H226.948V23.4156H230.171C231.822 23.4156 232.837 24.1255 232.837 25.5162C232.837 26.8572 231.871 27.6667 230.196 27.6667ZM237.787 25.264C237.787 23.4664 237.252 22.1006 236.212 21.0627C235.018 19.8733 233.14 19.1655 230.424 19.1655H222.024V36.8779H226.948V31.5141H229.104L232.683 36.8779H238.369L234.13 30.7045C236.34 29.7674 237.786 27.9708 237.786 25.265L237.787 25.264ZM248.749 32.8032C246.058 32.8032 244.205 30.5769 244.205 28.0217C244.205 25.4146 246.007 23.2391 248.697 23.2391C251.415 23.2391 253.268 25.4644 253.268 28.0217C253.268 30.6278 251.466 32.8032 248.749 32.8032ZM248.749 18.8095C243.267 18.8095 239.154 22.9341 239.154 28.0217C239.154 33.1561 243.215 37.2308 248.697 37.2308C254.18 37.2308 258.293 33.1063 258.293 28.0217C258.293 22.8852 254.23 18.8095 248.749 18.8095ZM193.37 25.9629L189.131 19.1056H184.081V36.818H188.646V26.7555L192.498 32.7683H194.139L197.784 26.7047V36.818H202.86V19.1056H197.61L193.37 25.9629Z" fill="#858585"></path>
  <path d="M260.218 19.1057H279V36.818H260.219L260.218 19.1057Z" fill="white"></path>
  <path fill-rule="evenodd" clip-rule="evenodd" d="M274.027 19.1057L269.788 25.9629L265.549 19.1057H260.218V36.818H265.296V26.7585L268.916 32.7703H270.557L274.432 26.7066V36.818H279V19.1057H274.027Z" fill="#858585"></path>
</svg>
