<?xml version="1.0" encoding="UTF-8"?>
<svg xmlns="http://www.w3.org/2000/svg" width="111" height="150" viewBox="0 0 111 150" fill="none">
  <path d="M81.6567 145.345C81.6567 148.358 79.7512 149.798 77.3769 149.798H71.9166V137.278H75.955V140.891H77.3769C79.7697 140.891 81.6567 142.307 81.6567 145.345ZM82.6937 121.99C82.6937 118.977 80.7883 117.536 78.414 117.536H72.9537V130.056H76.992V126.443H78.414C80.8067 126.443 82.6937 125.028 82.6937 121.99ZM79.3357 121.986C79.3357 122.969 78.5446 123.231 77.633 123.231H76.804V120.741H77.6177C78.5234 120.741 79.3357 120.991 79.3357 121.986ZM46.034 130.056H38.3083V117.536H45.9285V121.288H42.3466V122.294H45.7024V125.156H42.3466V126.305H46.034L46.034 130.056ZM86.6875 149.798H82.6488V137.278H86.6875V149.798ZM69.1024 149.785H65.0639V140.664H62.3117V142.81C62.3117 144.503 62.2615 145.719 62.1612 146.459C62.0003 147.627 61.6788 148.486 61.1967 149.034C60.6239 149.678 59.7652 150 58.6198 150C57.9667 150 57.5559 149.899 56.8425 149.696L56.8299 146.299C57.7539 146.299 58.5041 146.23 58.5182 144.484L58.5323 142.739L58.517 137.266H69.1025L69.1024 149.785ZM48.7959 137.107C52.5317 137.122 55.2593 139.723 55.2709 143.528C55.2591 147.33 52.5236 149.916 48.7959 149.928C45.068 149.916 42.3324 147.33 42.3208 143.528C42.3349 139.728 45.0636 137.122 48.7959 137.107ZM48.7959 146.392C50.4755 146.382 51.4993 145.185 51.5084 143.529C51.5021 141.87 50.4822 140.659 48.7959 140.648C47.1112 140.66 46.0926 141.875 46.0833 143.531C46.0942 145.187 47.1162 146.381 48.7959 146.392ZM70.1079 130.056H66.0695V117.536H70.1079V130.056ZM63.5903 130.058C62.2171 130.059 60.8441 130.059 59.4709 130.06L58.8677 125.557L56.9847 130.056C56.2594 130.059 55.5087 130.054 54.7834 130.056L52.9094 125.547L52.294 130.058C50.9187 130.057 49.5434 130.057 48.1681 130.056L50.4327 117.536C51.6955 117.536 52.9585 117.536 54.2213 117.536L55.8938 123.283L57.7059 117.536C58.9668 117.536 60.2279 117.536 61.4888 117.536L63.5903 130.058ZM36.5797 121.239H33.8165V130.056H29.778V121.239H27.0152V117.536H36.5797L36.5797 121.239ZM98.7304 110.651L94.8559 110.651L94.3633 109.256L90.2689 109.258L89.7841 110.649L85.8531 110.651L90.7338 98.1311H93.8502L98.7304 110.651ZM93.4328 106.618L92.3327 103.501H92.2724L91.1874 106.618H93.4328ZM49.196 110.623L45.3216 110.624L44.8289 109.228L40.7346 109.23L40.2498 110.622L36.3188 110.623L41.1995 98.1036H44.3159L49.196 110.623ZM43.8985 106.59L42.7984 103.474H42.7381L41.653 106.59H43.8985ZM63.2984 108.849H62.1793L59.1013 104L62.9914 98.1311H58.3955L55.1157 103.05H55.0553V98.1311H51.017V110.651H55.0553V105.339H55.1157L58.5009 110.651H60.2293V113.661H63.2984V110.651H63.323L63.2984 110.612V108.849ZM111 110.651H106.962V106.036H104.264V110.651H100.226V98.1311H104.264V102.459H106.962V98.1311H111V110.651ZM85.6182 101.833H82.855V110.651H78.8165V101.833H76.0537V98.1311H85.6182L85.6182 101.833ZM74.2512 110.334C73.2987 110.649 71.4949 110.835 70.5048 110.835C68.5055 110.835 66.9435 110.227 65.8183 109.011C64.7434 107.855 64.2058 106.305 64.2058 104.361C64.2058 102.549 64.683 101.07 65.6375 99.9257C66.7727 98.5662 68.4302 97.8866 70.6103 97.8866C71.6245 97.8866 73.2374 98.062 74.2211 98.2799V101.589C73.5589 101.275 72.0161 101.106 71.3034 101.106C69.712 101.106 68.4555 102.293 68.4555 104.254C68.4555 106.41 69.5978 107.491 71.3787 107.491C72.1209 107.491 73.5486 107.271 74.2512 107.008V110.334ZM12.2815 108.849H11.1624L8.08434 104L11.9744 98.1311H7.3785L4.0987 103.05H4.03836V98.1311H0V110.651H4.03836V105.339H4.0987L7.48396 110.651H9.21238V113.661H12.2815V110.651H12.306L12.2815 110.612V108.849ZM36.0335 107.092C36.0335 110.356 32.6711 110.865 30.5783 110.865C29.1061 110.865 28.7298 110.687 27.3029 110.276V107.021C28.3883 107.531 28.9279 107.861 30.0963 107.861C30.7064 107.861 31.784 107.679 31.784 106.716C31.784 105.697 30.9097 105.5 30.2168 105.5H28.2577V103.032H30.1715C30.7778 103.032 31.7086 102.928 31.7086 101.977C31.7086 101.006 30.4955 100.921 29.9005 100.921C28.816 100.921 28.5975 101.146 27.5741 101.566V98.3997C28.7697 98.0779 29.3075 97.9166 30.7744 97.9166C32.8306 97.9166 35.7019 98.4664 35.7019 101.565C35.7019 103.002 34.834 104.068 33.6525 104.266V104.337C34.9403 104.476 36.0335 105.46 36.0335 107.092ZM25.7555 110.651L21.881 110.651L21.3884 109.256L17.294 109.258L16.8092 110.649L12.8782 110.651L17.7589 98.1311H20.8754L25.7555 110.651ZM20.4579 106.618L19.3579 103.501H19.2975L18.2125 106.618H20.4579ZM41.5197 149.782H36.6976L34.3317 144.113H34.2415V149.782H30.3535V144.113H30.2633L27.8973 149.782H23.0751L26.8426 143.129L23.5272 137.263H27.8973L30.2633 142.539H30.3535V137.263H34.2415V142.539H34.3317L36.6976 137.263H41.0678L37.7524 143.129L41.5197 149.782ZM78.2987 145.349C78.2987 144.365 77.5076 144.104 76.596 144.104H75.767V146.594H76.5808C77.4865 146.594 78.2987 146.344 78.2987 145.349Z" fill="#858585"></path>
  <path fill-rule="evenodd" clip-rule="evenodd" d="M92.6478 74.0497H18.3785C36.7058 99.148 74.3228 99.148 92.6478 74.0497Z" fill="#858585"></path>
  <path fill-rule="evenodd" clip-rule="evenodd" d="M10.942 34.6117H48.9567L61.2183 46.3183H9.42289C9.41242 48.16 9.51902 50.0227 9.72555 51.8538H67.0141L75.1004 59.5747C77.3494 61.7188 76.8278 63.5604 72.7714 63.5604H12.6204C13.4084 65.5749 14.3326 67.524 15.3805 69.3859H95.6443C112.781 38.8721 91.1186 0 55.511 0C40.9585 0 27.9792 6.80292 19.5332 17.4322C23.3735 17.6713 27.8459 18.232 30.6432 19.1932C33.448 20.1533 36.4147 22.6325 37.515 23.682L43.2313 29.1388H12.7433C12.0313 30.9122 11.4298 32.7395 10.9416 34.6118L10.942 34.6117Z" fill="#CDCDCD"></path>
  <path fill-rule="evenodd" clip-rule="evenodd" d="M95.6449 69.386H15.3811C16.29 71.002 17.2903 72.5613 18.3782 74.0506L92.6478 74.0497C93.7385 72.5614 94.7359 71.0039 95.6449 69.386ZM30.6422 19.1959C27.8469 18.2357 23.3717 17.6768 19.5322 17.4349C16.7369 20.953 14.4355 24.8936 12.7385 29.1444H43.2294L37.5102 23.6876C36.4166 22.6324 33.4471 20.1609 30.6422 19.1959ZM48.96 34.6118H10.9425C9.96505 38.3518 9.43872 42.2742 9.42159 46.3185H61.2161L48.96 34.6118ZM67.0153 51.8539H9.72672C10.1921 55.9395 11.182 59.8667 12.6249 63.5605H72.7749C76.8266 63.5605 77.35 61.716 75.1039 59.5748L67.0157 51.8539L67.0153 51.8539Z" fill="white"></path>
</svg>
